<?xml version="1.0" encoding="UTF-8" standalone="no"?>
<!DOCTYPE svg PUBLIC "-//W3C//DTD SVG 1.1//EN"
 "http://www.w3.org/Graphics/SVG/1.1/DTD/svg11.dtd">
<!-- Generated by graphviz version 14.1.2 (0)
 -->
<!-- Pages: 1 -->
<svg width="441pt" height="188pt"
 viewBox="0.00 0.00 441.00 188.00" xmlns="http://www.w3.org/2000/svg" xmlns:xlink="http://www.w3.org/1999/xlink">
<g id="graph0" class="graph" transform="scale(1 1) rotate(0) translate(4 184)">
<polygon fill="white" stroke="none" points="-4,4 -4,-184 436.89,-184 436.89,4 -4,4"/>
<!-- 6550477906792856737 -->
<g id="node1" class="node">
<title>6550477906792856737</title>
<polygon fill="none" stroke="black" points="294.47,-180 138.43,-180 138.43,-144 294.47,-144 294.47,-180"/>
<text xml:space="preserve" text-anchor="middle" x="216.45" y="-156" font-family="Helvetica,sans-Serif" font-size="20.00">Max(Projection)</text>
</g>
<!-- &#45;3192643890404364934 -->
<g id="node2" class="node">
<title>&#45;3192643890404364934</title>
<polygon fill="none" stroke="black" points="432.89,-108 0,-108 0,-72 432.89,-72 432.89,-108"/>
<text xml:space="preserve" text-anchor="middle" x="216.45" y="-84" font-family="Helvetica,sans-Serif" font-size="20.00">Projection(ReadCSV, valor_total_adjudicacion)</text>
</g>
<!-- &#45;3192643890404364934&#45;&gt;6550477906792856737 -->
<g id="edge1" class="edge">
<title>&#45;3192643890404364934&#45;&gt;6550477906792856737</title>
<path fill="none" stroke="black" d="M216.45,-108.3C216.45,-115.59 216.45,-124.27 216.45,-132.46"/>
<polygon fill="black" stroke="black" points="212.95,-132.38 216.45,-142.38 219.95,-132.38 212.95,-132.38"/>
</g>
<!-- &#45;8271715726757650338 -->
<g id="node3" class="node">
<title>&#45;8271715726757650338</title>
<polygon fill="none" stroke="black" points="268.92,-36 163.98,-36 163.98,0 268.92,0 268.92,-36"/>
<text xml:space="preserve" text-anchor="middle" x="216.45" y="-12" font-family="Helvetica,sans-Serif" font-size="20.00">ReadCSV</text>
</g>
<!-- &#45;8271715726757650338&#45;&gt;&#45;3192643890404364934 -->
<g id="edge2" class="edge">
<title>&#45;8271715726757650338&#45;&gt;&#45;3192643890404364934</title>
<path fill="none" stroke="black" d="M216.45,-36.3C216.45,-43.59 216.45,-52.27 216.45,-60.46"/>
<polygon fill="black" stroke="black" points="212.95,-60.38 216.45,-70.38 219.95,-60.38 212.95,-60.38"/>
</g>
</g>
</svg>
